<svg width="24" height="22" viewBox="0 0 24 22" fill="none" xmlns="http://www.w3.org/2000/svg">
<path d="M12 0.0195312C12.9922 0.0195312 13.9766 0.0507812 14.9531 0.113281C15.9297 0.175781 16.9102 0.3125 17.8945 0.523438C18.8711 0.726563 19.7539 1.07031 20.543 1.55469C21.332 2.03906 22.0039 2.70312 22.5586 3.54688C23.0742 4.34375 23.4414 5.21484 23.6602 6.16016C23.8789 7.10547 23.9922 8.05078 24 8.99609C24 9.76172 23.9414 10.4844 23.8242 11.1641C23.707 11.8438 23.5117 12.4922 23.2383 13.1094C22.9648 13.7266 22.6133 14.3008 22.1836 14.832C21.7539 15.3633 21.2305 15.8672 20.6133 16.3438C19.4102 17.2656 18.2148 18.1758 17.0273 19.0742C15.8398 19.9727 14.6445 20.8828 13.4414 21.8047C13.2852 21.9219 13.1016 21.9805 12.8906 21.9805C12.7578 21.9805 12.6406 21.9531 12.5391 21.8984C12.4375 21.8438 12.3437 21.7734 12.2578 21.6875C12.1719 21.6016 12.1094 21.5 12.0703 21.3828C12.0312 21.2656 12.0078 21.1445 12 21.0195V17.7148H9.02344C8.54687 17.7148 8.0625 17.6953 7.57031 17.6562C7.07812 17.6172 6.58594 17.5469 6.09375 17.4453C5.60156 17.3437 5.1289 17.2031 4.67578 17.0234C4.22265 16.8438 3.79297 16.6172 3.38672 16.3438C2.77734 15.9219 2.25781 15.4375 1.82812 14.8906C1.39844 14.3437 1.05078 13.75 0.785155 13.1094C0.51953 12.4687 0.320311 11.8047 0.187499 11.1172C0.0546862 10.4297 -0.00781377 9.72266 -1.27156e-06 8.99609C-1.27156e-06 8.02734 0.109374 7.08203 0.328124 6.16016C0.546874 5.23828 0.929686 4.36719 1.47656 3.54688C2.03906 2.69531 2.70312 2.03125 3.46875 1.55469C4.23437 1.07812 5.11328 0.734375 6.10547 0.523438C7.08203 0.320312 8.05859 0.1875 9.03515 0.125C10.0117 0.0625 11 0.0273438 12 0.0195312ZM12.75 11C12.9531 11 13.1289 10.9258 13.2773 10.7773C13.4258 10.6289 13.5 10.4531 13.5 10.25C13.5 10.0469 13.4258 9.87109 13.2773 9.72266C13.1289 9.57422 12.9531 9.5 12.75 9.5H6.75C6.54687 9.5 6.37109 9.57422 6.22265 9.72266C6.07422 9.87109 6 10.0469 6 10.25C6 10.4531 6.07422 10.6289 6.22265 10.7773C6.37109 10.9258 6.54687 11 6.75 11H12.75ZM17.2031 8C17.4297 8 17.6172 7.93359 17.7656 7.80078C17.9141 7.66797 17.9922 7.48438 18 7.25C18 7.02344 17.9258 6.84375 17.7773 6.71094C17.6289 6.57813 17.4375 6.50781 17.2031 6.5H6.79687C6.57812 6.5 6.39062 6.56641 6.23437 6.69922C6.07812 6.83203 6 7.01562 6 7.25C6 7.47656 6.07812 7.65625 6.23437 7.78906C6.39062 7.92187 6.57812 7.99219 6.79687 8H17.2031Z" fill="#EEECE5"/>
</svg>
