<svg width="308" height="115" viewBox="0 0 308 115" fill="none" xmlns="http://www.w3.org/2000/svg">
<path d="M308 154C308 239.052 239.052 308 154 308C68.9482 308 0 239.052 0 154C0 68.9482 68.9482 0 154 0C239.052 0 308 68.9482 308 154ZM31.186 154C31.186 221.828 86.1717 276.814 154 276.814C221.828 276.814 276.814 221.828 276.814 154C276.814 86.1717 221.828 31.186 154 31.186C86.1717 31.186 31.186 86.1717 31.186 154Z" fill="#C4C4C4"/>
<path d="M209.61 293.311C210.429 295.363 212.758 296.367 214.788 295.495C234.379 287.078 252.023 274.679 266.591 259.068C282.068 242.483 293.69 222.682 300.626 201.082C307.562 179.483 309.64 156.617 306.712 134.121C303.956 112.948 296.829 92.5946 285.8 74.3459C284.657 72.4552 282.179 71.9155 280.318 73.1068L260.793 85.6108C258.932 86.8021 258.396 89.2729 259.526 91.1711C268.085 105.545 273.623 121.53 275.786 138.147C278.122 156.087 276.465 174.322 270.933 191.548C265.402 208.773 256.134 224.564 243.79 237.791C232.357 250.043 218.548 259.814 203.221 266.519C201.197 267.404 200.195 269.726 201.014 271.777L209.61 293.311Z" fill="#00BDB2"/>
<path d="M297.61 110.685C299.725 110.047 300.927 107.813 300.235 105.715C289.784 74.0643 269.343 46.6546 241.988 27.6113C240.175 26.3491 237.691 26.8644 236.476 28.7096L223.728 48.0762C222.513 49.9214 223.029 52.3969 224.833 53.671C246.096 68.6817 262.042 90.064 270.365 114.724C271.071 116.817 273.296 118.018 275.412 117.38L297.61 110.685Z" fill="#0057BD"/>
<path d="M252.113 40.5371C253.558 38.866 253.378 36.3357 251.67 34.9346C235.525 21.6906 216.843 11.8593 196.755 6.05405C175.385 -0.121655 152.931 -1.59456 130.938 1.73666C108.944 5.06788 87.9333 13.1242 69.3508 25.3512C51.8829 36.8449 36.9505 51.7675 25.4515 69.1985C24.235 71.0426 24.8124 73.5127 26.6875 74.6809L46.3666 86.9416C48.2416 88.1097 50.7032 87.5326 51.9318 85.6966C61.0406 72.085 72.7882 60.4209 86.4928 51.4035C101.312 41.6525 118.068 35.2276 135.608 32.571C153.148 29.9144 171.055 31.089 188.097 36.0141C203.857 40.5687 218.532 48.2307 231.263 58.5344C232.98 59.9242 235.502 59.7465 236.947 58.0754L252.113 40.5371Z" fill="#BD5B00"/>
</svg>
