<svg width="308" height="115" viewBox="0 0 308 115" fill="none" xmlns="http://www.w3.org/2000/svg">
<path d="M308 154C308 239.052 239.052 308 154 308C68.9482 308 0 239.052 0 154C0 68.9482 68.9482 0 154 0C239.052 0 308 68.9482 308 154ZM31.186 154C31.186 221.828 86.1717 276.814 154 276.814C221.828 276.814 276.814 221.828 276.814 154C276.814 86.1717 221.828 31.186 154 31.186C86.1717 31.186 31.186 86.1717 31.186 154Z" fill="#C4C4C4"/>
<path d="M209.61 293.311C210.429 295.363 212.758 296.367 214.788 295.495C234.379 287.078 252.023 274.679 266.591 259.068C282.068 242.483 293.69 222.682 300.626 201.082C307.562 179.483 309.64 156.617 306.712 134.121C303.956 112.948 296.829 92.5946 285.8 74.3459C284.657 72.4552 282.179 71.9155 280.318 73.1068L260.793 85.6108C258.932 86.8021 258.396 89.2729 259.526 91.1711C268.085 105.545 273.623 121.53 275.786 138.147C278.122 156.087 276.465 174.322 270.933 191.548C265.402 208.773 256.134 224.564 243.79 237.791C232.357 250.043 218.548 259.814 203.221 266.519C201.197 267.404 200.195 269.726 201.014 271.777L209.61 293.311Z" fill="#00BDB2"/>
<path d="M297.61 110.685C299.725 110.047 300.927 107.813 300.235 105.715C289.784 74.0643 269.343 46.6546 241.988 27.6113C240.175 26.3491 237.691 26.8644 236.476 28.7096L223.728 48.0762C222.513 49.9214 223.029 52.3969 224.833 53.671C246.096 68.6817 262.042 90.064 270.365 114.724C271.071 116.817 273.296 118.018 275.412 117.38L297.61 110.685Z" fill="#0057BD"/>
<path d="M252.113 40.5371C253.558 38.866 253.378 36.3357 251.67 34.9346C235.525 21.6906 216.843 11.8593 196.755 6.05405C175.385 -0.121655 152.931 -1.59456 130.938 1.73666C108.944 5.06788 87.9333 13.1242 69.3508 25.3512C51.8829 36.8449 36.9505 51.7675 25.4515 69.1985C24.235 71.0426 24.8124 73.5127 26.6875 74.6809L46.3666 86.9416C48.2416 88.1097 50.7032 87.5326 51.9318 85.6966C61.0406 72.085 72.7882 60.4209 86.4928 51.4035C101.312 41.6525 118.068 35.2276 135.608 32.571C153.148 29.9144 171.055 31.089 188.097 36.0141C203.857 40.5687 218.532 48.2307 231.263 58.5344C232.98 59.9242 235.502 59.7465 236.947 58.0754L252.113 40.5371Z" fill="#BD5B00"/>
<path d="M109.871 92.099C109.394 92.099 108.976 91.9853 108.617 91.758C108.265 91.5307 107.99 91.2117 107.792 90.801C107.601 90.383 107.506 89.8917 107.506 89.327C107.506 88.755 107.601 88.2637 107.792 87.853C107.99 87.435 108.265 87.116 108.617 86.896C108.976 86.6687 109.394 86.555 109.871 86.555C110.289 86.555 110.656 86.6467 110.971 86.83C111.294 87.0133 111.532 87.2663 111.686 87.589V84.245H112.577V92H111.708V91.021C111.554 91.3583 111.316 91.6223 110.993 91.813C110.67 92.0037 110.296 92.099 109.871 92.099ZM110.058 91.384C110.557 91.384 110.956 91.208 111.257 90.856C111.558 90.4967 111.708 89.987 111.708 89.327C111.708 88.6597 111.558 88.15 111.257 87.798C110.956 87.446 110.557 87.27 110.058 87.27C109.552 87.27 109.149 87.446 108.848 87.798C108.555 88.15 108.408 88.6597 108.408 89.327C108.408 89.987 108.555 90.4967 108.848 90.856C109.149 91.208 109.552 91.384 110.058 91.384ZM114.139 85.323V84.322H115.239V85.323H114.139ZM114.249 92V86.654H115.14V92H114.249ZM118.379 92L116.08 86.654H117.048L118.819 90.988L120.612 86.654H121.525L119.215 92H118.379ZM122.247 91.615V90.856L126.757 88.843L122.247 86.819V86.071L127.615 88.491V89.195L122.247 91.615ZM131.472 92.099C130.628 92.099 129.961 91.8533 129.47 91.362C128.978 90.8633 128.733 90.1887 128.733 89.338C128.733 88.788 128.843 88.304 129.063 87.886C129.283 87.4607 129.583 87.1343 129.965 86.907C130.353 86.6723 130.801 86.555 131.307 86.555C132.033 86.555 132.601 86.7897 133.012 87.259C133.422 87.721 133.628 88.359 133.628 89.173V89.514H129.602C129.631 90.1227 129.807 90.5883 130.13 90.911C130.452 91.2263 130.9 91.384 131.472 91.384C131.794 91.384 132.102 91.3363 132.396 91.241C132.689 91.1383 132.968 90.9733 133.232 90.746L133.54 91.373C133.298 91.6003 132.99 91.78 132.616 91.912C132.242 92.0367 131.86 92.099 131.472 92.099ZM131.329 87.215C130.823 87.215 130.423 87.3727 130.13 87.688C129.836 88.0033 129.664 88.4177 129.613 88.931H132.858C132.836 88.3883 132.693 87.9667 132.429 87.666C132.172 87.3653 131.805 87.215 131.329 87.215ZM134.192 92L136.414 89.239L134.324 86.654H135.38L136.931 88.623L138.493 86.654H139.538L137.448 89.239L139.67 92H138.614L136.92 89.877L135.248 92H134.192ZM140.653 93.98V86.654H141.522V87.611C141.684 87.281 141.922 87.0243 142.237 86.841C142.56 86.6503 142.934 86.555 143.359 86.555C143.836 86.555 144.25 86.6687 144.602 86.896C144.962 87.116 145.237 87.435 145.427 87.853C145.625 88.2637 145.724 88.755 145.724 89.327C145.724 89.8917 145.625 90.383 145.427 90.801C145.237 91.2117 144.962 91.5307 144.602 91.758C144.25 91.9853 143.836 92.099 143.359 92.099C142.949 92.099 142.582 92.0073 142.259 91.824C141.937 91.6407 141.698 91.3877 141.544 91.065V93.98H140.653ZM143.172 91.384C143.671 91.384 144.071 91.208 144.371 90.856C144.672 90.4967 144.822 89.987 144.822 89.327C144.822 88.6597 144.672 88.15 144.371 87.798C144.071 87.446 143.671 87.27 143.172 87.27C142.674 87.27 142.274 87.446 141.973 87.798C141.673 88.15 141.522 88.6597 141.522 89.327C141.522 89.987 141.673 90.4967 141.973 90.856C142.274 91.208 142.674 91.384 143.172 91.384ZM148.749 92.099C148.383 92.099 148.053 92.0293 147.759 91.89C147.473 91.7433 147.246 91.5453 147.077 91.296C146.909 91.0467 146.824 90.768 146.824 90.46C146.824 90.0713 146.923 89.7633 147.121 89.536C147.327 89.3087 147.66 89.1473 148.122 89.052C148.592 88.9493 149.23 88.898 150.036 88.898H150.388V88.557C150.388 88.1023 150.293 87.776 150.102 87.578C149.919 87.3727 149.622 87.27 149.211 87.27C148.889 87.27 148.577 87.3177 148.276 87.413C147.976 87.501 147.668 87.6477 147.352 87.853L147.044 87.204C147.323 87.006 147.66 86.8483 148.056 86.731C148.46 86.6137 148.845 86.555 149.211 86.555C149.901 86.555 150.41 86.7237 150.74 87.061C151.078 87.3983 151.246 87.9227 151.246 88.634V92H150.41V91.076C150.271 91.3913 150.055 91.6407 149.761 91.824C149.475 92.0073 149.138 92.099 148.749 92.099ZM148.892 91.428C149.332 91.428 149.692 91.2777 149.97 90.977C150.249 90.669 150.388 90.2803 150.388 89.811V89.481H150.047C149.453 89.481 148.984 89.5103 148.639 89.569C148.302 89.6203 148.064 89.7157 147.924 89.855C147.792 89.987 147.726 90.1703 147.726 90.405C147.726 90.7057 147.829 90.9513 148.034 91.142C148.247 91.3327 148.533 91.428 148.892 91.428ZM152.899 92V86.654H153.768V87.567C153.944 87.2297 154.194 86.9767 154.516 86.808C154.839 86.6393 155.202 86.555 155.605 86.555C156.874 86.555 157.508 87.259 157.508 88.667V92H156.617V88.722C156.617 88.2233 156.518 87.8603 156.32 87.633C156.13 87.3983 155.822 87.281 155.396 87.281C154.905 87.281 154.513 87.435 154.219 87.743C153.933 88.0437 153.79 88.447 153.79 88.953V92H152.899ZM160.955 92.099C160.537 92.099 160.141 92.0403 159.767 91.923C159.393 91.8057 159.085 91.6407 158.843 91.428L159.129 90.801C159.393 91.0137 159.683 91.1713 159.998 91.274C160.321 91.3693 160.647 91.417 160.977 91.417C161.395 91.417 161.711 91.34 161.923 91.186C162.136 91.032 162.242 90.823 162.242 90.559C162.242 90.3537 162.173 90.1923 162.033 90.075C161.894 89.9503 161.674 89.855 161.373 89.789L160.372 89.569C159.463 89.371 159.008 88.9017 159.008 88.161C159.008 87.677 159.199 87.2883 159.58 86.995C159.969 86.7017 160.475 86.555 161.098 86.555C161.465 86.555 161.813 86.6137 162.143 86.731C162.481 86.841 162.759 87.006 162.979 87.226L162.682 87.853C162.47 87.655 162.22 87.5047 161.934 87.402C161.656 87.292 161.377 87.237 161.098 87.237C160.688 87.237 160.376 87.3177 160.163 87.479C159.951 87.6403 159.844 87.853 159.844 88.117C159.844 88.5277 160.116 88.7917 160.658 88.909L161.659 89.118C162.129 89.2207 162.484 89.3857 162.726 89.613C162.968 89.833 163.089 90.1337 163.089 90.515C163.089 91.0063 162.895 91.395 162.506 91.681C162.118 91.9597 161.601 92.099 160.955 92.099ZM166.856 92.099C166.013 92.099 165.346 91.8533 164.854 91.362C164.363 90.8633 164.117 90.1887 164.117 89.338C164.117 88.788 164.227 88.304 164.447 87.886C164.667 87.4607 164.968 87.1343 165.349 86.907C165.738 86.6723 166.185 86.555 166.691 86.555C167.417 86.555 167.986 86.7897 168.396 87.259C168.807 87.721 169.012 88.359 169.012 89.173V89.514H164.986C165.016 90.1227 165.192 90.5883 165.514 90.911C165.837 91.2263 166.284 91.384 166.856 91.384C167.179 91.384 167.487 91.3363 167.78 91.241C168.074 91.1383 168.352 90.9733 168.616 90.746L168.924 91.373C168.682 91.6003 168.374 91.78 168 91.912C167.626 92.0367 167.245 92.099 166.856 92.099ZM166.713 87.215C166.207 87.215 165.808 87.3727 165.514 87.688C165.221 88.0033 165.049 88.4177 164.997 88.931H168.242C168.22 88.3883 168.077 87.9667 167.813 87.666C167.557 87.3653 167.19 87.215 166.713 87.215ZM169.686 92.583V92H174.746V92.583H169.686ZM175.802 93.98V86.654H176.671V87.611C176.832 87.281 177.07 87.0243 177.386 86.841C177.708 86.6503 178.082 86.555 178.508 86.555C178.984 86.555 179.399 86.6687 179.751 86.896C180.11 87.116 180.385 87.435 180.576 87.853C180.774 88.2637 180.873 88.755 180.873 89.327C180.873 89.8917 180.774 90.383 180.576 90.801C180.385 91.2117 180.11 91.5307 179.751 91.758C179.399 91.9853 178.984 92.099 178.508 92.099C178.097 92.099 177.73 92.0073 177.408 91.824C177.085 91.6407 176.847 91.3877 176.693 91.065V93.98H175.802ZM178.321 91.384C178.819 91.384 179.219 91.208 179.52 90.856C179.82 90.4967 179.971 89.987 179.971 89.327C179.971 88.6597 179.82 88.15 179.52 87.798C179.219 87.446 178.819 87.27 178.321 87.27C177.822 87.27 177.422 87.446 177.122 87.798C176.821 88.15 176.671 88.6597 176.671 89.327C176.671 89.987 176.821 90.4967 177.122 90.856C177.422 91.208 177.822 91.384 178.321 91.384ZM183.898 92.099C183.531 92.099 183.201 92.0293 182.908 91.89C182.622 91.7433 182.395 91.5453 182.226 91.296C182.057 91.0467 181.973 90.768 181.973 90.46C181.973 90.0713 182.072 89.7633 182.27 89.536C182.475 89.3087 182.809 89.1473 183.271 89.052C183.74 88.9493 184.378 88.898 185.185 88.898H185.537V88.557C185.537 88.1023 185.442 87.776 185.251 87.578C185.068 87.3727 184.771 87.27 184.36 87.27C184.037 87.27 183.726 87.3177 183.425 87.413C183.124 87.501 182.816 87.6477 182.501 87.853L182.193 87.204C182.472 87.006 182.809 86.8483 183.205 86.731C183.608 86.6137 183.993 86.555 184.36 86.555C185.049 86.555 185.559 86.7237 185.889 87.061C186.226 87.3983 186.395 87.9227 186.395 88.634V92H185.559V91.076C185.42 91.3913 185.203 91.6407 184.91 91.824C184.624 92.0073 184.287 92.099 183.898 92.099ZM184.041 91.428C184.481 91.428 184.84 91.2777 185.119 90.977C185.398 90.669 185.537 90.2803 185.537 89.811V89.481H185.196C184.602 89.481 184.133 89.5103 183.788 89.569C183.451 89.6203 183.212 89.7157 183.073 89.855C182.941 89.987 182.875 90.1703 182.875 90.405C182.875 90.7057 182.978 90.9513 183.183 91.142C183.396 91.3327 183.682 91.428 184.041 91.428ZM190.193 92.099C189.562 92.099 189.089 91.934 188.774 91.604C188.459 91.2667 188.301 90.7827 188.301 90.152V87.347H187.256V86.654H188.301V85.015H189.192V86.654H190.886V87.347H189.192V90.064C189.192 90.482 189.28 90.801 189.456 91.021C189.632 91.2337 189.918 91.34 190.314 91.34C190.431 91.34 190.549 91.3253 190.666 91.296C190.783 91.2667 190.89 91.2373 190.985 91.208L191.139 91.89C191.044 91.9413 190.904 91.989 190.721 92.033C190.538 92.077 190.362 92.099 190.193 92.099ZM193.899 92.099C193.268 92.099 192.795 91.934 192.48 91.604C192.165 91.2667 192.007 90.7827 192.007 90.152V87.347H190.962V86.654H192.007V85.015H192.898V86.654H194.592V87.347H192.898V90.064C192.898 90.482 192.986 90.801 193.162 91.021C193.338 91.2337 193.624 91.34 194.02 91.34C194.137 91.34 194.255 91.3253 194.372 91.296C194.489 91.2667 194.596 91.2373 194.691 91.208L194.845 91.89C194.75 91.9413 194.61 91.989 194.427 92.033C194.244 92.077 194.068 92.099 193.899 92.099ZM197.955 92.099C197.112 92.099 196.444 91.8533 195.953 91.362C195.462 90.8633 195.216 90.1887 195.216 89.338C195.216 88.788 195.326 88.304 195.546 87.886C195.766 87.4607 196.067 87.1343 196.448 86.907C196.837 86.6723 197.284 86.555 197.79 86.555C198.516 86.555 199.084 86.7897 199.495 87.259C199.906 87.721 200.111 88.359 200.111 89.173V89.514H196.085C196.114 90.1227 196.29 90.5883 196.613 90.911C196.936 91.2263 197.383 91.384 197.955 91.384C198.278 91.384 198.586 91.3363 198.879 91.241C199.172 91.1383 199.451 90.9733 199.715 90.746L200.023 91.373C199.781 91.6003 199.473 91.78 199.099 91.912C198.725 92.0367 198.344 92.099 197.955 92.099ZM197.812 87.215C197.306 87.215 196.906 87.3727 196.613 87.688C196.32 88.0033 196.147 88.4177 196.096 88.931H199.341C199.319 88.3883 199.176 87.9667 198.912 87.666C198.655 87.3653 198.289 87.215 197.812 87.215ZM201.4 92V86.654H202.269V87.611C202.555 86.9657 203.142 86.61 204.029 86.544L204.348 86.511L204.414 87.281L203.853 87.347C203.347 87.391 202.962 87.5523 202.698 87.831C202.434 88.1023 202.302 88.4763 202.302 88.953V92H201.4ZM205.343 92V86.654H206.212V87.567C206.388 87.2297 206.637 86.9767 206.96 86.808C207.283 86.6393 207.646 86.555 208.049 86.555C209.318 86.555 209.952 87.259 209.952 88.667V92H209.061V88.722C209.061 88.2233 208.962 87.8603 208.764 87.633C208.573 87.3983 208.265 87.281 207.84 87.281C207.349 87.281 206.956 87.435 206.663 87.743C206.377 88.0437 206.234 88.447 206.234 88.953V92H205.343Z" fill="black"/>
</svg>
